<?xml version="1.0" encoding="utf-8"?>
<!-- Generator: Adobe Adobe Illustrator 29.2.0, SVG Export Plug-In . SVG Version: 6.00 Build 0)  -->
<svg version="1.1" xmlns="http://www.w3.org/2000/svg" xmlns:xlink="http://www.w3.org/1999/xlink" x="0px" y="0px" width="500px"
	 height="500px" viewBox="0 0 500 500" style="enable-background:new 0 0 500 500;" xml:space="preserve">
<style type="text/css">
	.st0{display:none;}
	.st1{fill:url(#SVGID_1_);}
	.st2{fill:#FFFFFF;stroke:#050304;stroke-miterlimit:10;}
	.st3{fill:#050304;}
	.st4{fill:#FFFFFF;}
	.st5{fill:#FFFFFF;stroke:#000000;stroke-miterlimit:10;}
	.st6{fill:#D9D9CE;stroke:#000000;stroke-miterlimit:10;}
	.st7{fill:#FF0000;stroke:#000000;stroke-miterlimit:10;}
</style>
<g id="Layer_1" class="st0">
</g>
<g id="Layer_6">
</g>
<g id="Layer_6_copy">
	<g id="Layer_5">
	</g>
	<g id="Layer_5_copy">
	</g>
</g>
<g id="Layer_6_copy_2">
	<g id="Layer_5_copy_2_00000082327884058772048410000009995954601842829966_">
		<path class="st2" d="M257.6,134.73c128.16,13.06,192.66,97.34,182.8,194.1S285.86,432.79,254.85,431.06"/>
	</g>
	
		<ellipse transform="matrix(0.9905 -0.1373 0.1373 0.9905 -34.7737 50.5686)" class="st3" cx="349.13" cy="277.32" rx="17.24" ry="26.63"/>
	<path class="st3" d="M343.66,222.74c-2.87-15.35,24.18,11.37,19.16,14.43"/>
	<g id="Layer_5_copy_2">
	</g>
	<path class="st2" d="M256.18,134.73c-128.16,13.06-192.66,97.34-182.8,194.1s154.54,103.96,185.56,102.23"/>
	<rect x="248.66" y="159.91" class="st4" width="16.83" height="49.47"/>
	
		<ellipse transform="matrix(0.1373 -0.9905 0.9905 0.1373 -132.6505 402.3292)" class="st3" cx="164.65" cy="277.32" rx="26.63" ry="17.24"/>
	<path class="st3" d="M170.12,222.74c2.87-15.35-24.18,11.37-19.16,14.43"/>
	<g>
		<g>
			<path class="st5" d="M270.18,294.69l4.3,8.55c0.71,1.41,2.69,1.43,3.42,0.03l5.24-9.98c0.75-1.42-0.42-3.1-1.98-2.86l-9.54,1.43
				C270.31,292.05,269.58,293.49,270.18,294.69z"/>
			<path class="st3" d="M258.4,289.16c0.64,0.02,1.27,0.02,1.9,0.02c-0.73,0.02-1.47,0.02-2.19,0.02
				C258.21,289.16,258.31,289.16,258.4,289.16z"/>
			<path class="st3" d="M289.73,287.97c0,0.34-0.02,0.68-0.05,0.97c-0.04,0.63-0.43,1.19-1.03,1.37c-1.6,0.51-3.45,0.94-5.42,1.31
				c-4.14,0.79-8.86,1.28-13.16,1.54c-3.82,0.23-7.31,0.28-9.75,0.14c0.9-0.03,1.66-0.11,2.23-0.2c0.64-0.09,1.2-0.73,1.26-1.39
				l0.06-0.88c0.07-0.96-0.54-1.53-1.32-1.65c9.54-0.06,18.31-0.99,25.34-2.69C288.82,286.28,289.72,286.98,289.73,287.97z"/>
		</g>
		<g>
			<path class="st5" d="M250.41,294.69l-4.3,8.56c-0.7,1.41-2.68,1.42-3.42,0.03l-5.24-9.98c-0.3-0.56-0.3-1.16-0.09-1.67
				c0.33-0.79,1.12-1.34,2.07-1.2l9.54,1.44c0.76,0.11,1.33,0.65,1.54,1.31C250.68,293.65,250.67,294.19,250.41,294.69z"/>
			<path class="st3" d="M263.87,290.84l-0.06,0.88c-0.06,0.66-0.61,1.3-1.26,1.39c-0.57,0.09-1.33,0.17-2.23,0.2
				c-0.01,0-0.03,0.02-0.04,0c-0.9-0.03-1.65-0.11-2.23-0.2c-0.64-0.09-1.2-0.73-1.24-1.39l-0.08-0.88
				c-0.07-0.96,0.54-1.53,1.32-1.65h0.07c0.72,0,1.45,0,2.19-0.02c0.73,0.02,1.45,0.02,2.17,0.02c0.02-0.02,0.05-0.02,0.07,0
				C263.33,289.31,263.95,289.88,263.87,290.84z"/>
			<path class="st3" d="M260.27,293.31c-2.44,0.14-5.93,0.09-9.75-0.14c-0.21-0.66-0.78-1.2-1.54-1.31l-9.54-1.44
				c-0.94-0.14-1.74,0.42-2.07,1.2c-1.98-0.37-3.82-0.8-5.42-1.31c-0.58-0.19-0.99-0.74-1.03-1.37c-0.03-0.29-0.04-0.63-0.04-0.97
				c0.01-0.99,0.91-1.68,1.86-1.47c7.01,1.7,15.78,2.63,25.32,2.69c-0.78,0.12-1.39,0.7-1.32,1.65l0.08,0.88
				c0.04,0.66,0.6,1.3,1.24,1.39C258.63,293.21,259.37,293.28,260.27,293.31z"/>
			<path class="st3" d="M250.52,293.17c-4.3-0.26-9.02-0.76-13.16-1.54c0.33-0.79,1.12-1.34,2.07-1.2l9.54,1.44
				C249.74,291.97,250.31,292.51,250.52,293.17z"/>
			<path class="st3" d="M262.48,289.19c-0.72,0-1.44,0-2.17-0.02c0.63,0,1.26,0,1.89-0.02
				C262.28,289.16,262.39,289.16,262.48,289.19z"/>
		</g>
	</g>
	<path class="st6" d="M413.07,197.39c-19.34-13.29-19.82-13.46-19.82-13.46l-7.04,9.39L370,176.69l-18.25,15.11l-21.01-20.99
		l-30.45,21.91l-43.41-27.37l-43.39,27.37l-30.46-21.91l-21.01,20.99l-18.25-15.11l-16.2,16.64l-7.04-9.39
		c0,0-0.48,0.17-19.82,13.46c35.42-64.06,87.4-91.01,155.73-90.51h0.9C325.66,106.39,377.64,133.33,413.07,197.39z"/>
	<path class="st7" d="M360.06,72.46c-0.5,17.7-8.27,31.47-17.56,42.26c-3,3.49-8.62,10.32-13.27,12.07c0,0,33.27,21.5,34.39,20
		C378.52,126.87,378.72,91.86,360.06,72.46z"/>
	<path class="st7" d="M153.72,72.46c0.5,17.7,8.27,31.47,17.56,42.26c3,3.49,8.62,10.32,13.27,12.07c0,0-33.27,21.5-34.39,20
		C135.25,126.87,135.06,91.86,153.72,72.46z"/>
</g>
</svg>
